<?xml version="1.0" encoding="UTF-8"?>
<svg xmlns="http://www.w3.org/2000/svg" version="1.1" xmlns:xlink="http://www.w3.org/1999/xlink" viewBox="0 0 200 100">
  <defs>
    <style>
      .cls-1 {
        isolation: isolate;
      }

      .cls-2 {
        fill: #ff6207;
        stroke-width: 0px;
      }

      .cls-3 {
        fill: none;
        stroke: url(#linear-gradient);
      }
    </style>
    <linearGradient id="linear-gradient" x1="-846.8" y1="614.2" x2="-845.8" y2="614.2" gradientTransform="translate(-24469 33901) rotate(90) scale(40 -40)" gradientUnits="userSpaceOnUse">
      <stop offset="0" stop-color="#ff6207"/>
      <stop offset="1" stop-color="#fff"/>
    </linearGradient>
  </defs>
  <g id="eKkDHhzw8gv1" shape-rendering="geometricPrecision" text-rendering="geometricPrecision">
    <g id="eKkDHhzw8gv2_to" data-name="eKkDHhzw8gv2 to">
      <g>
        <g id="eKkDHhzw8gv3_tr" data-name="eKkDHhzw8gv3 tr">
          <circle class="cls-3" cx="100" cy="50" r="20">
            <animateTransform accumulate="none" additive="replace" attributeName="transform" attributeType="XML" calcMode="linear" dur="2s" fill="remove" from="0" repeatCount="indefinite" restart="always" to="360" type="rotate"/>
          </circle>
        </g>
        <g class="cls-1">
          <g class="cls-1">
            <path class="cls-2" d="M87.3,53.1v-6h1.4v5h3.5v1h-4.9Z"/>
            <path class="cls-2" d="M94.1,53.1v-2.6l-2.6-3.5h1.6l1.6,2.4,1.6-2.4h1.6l-2.6,3.5v2.6h-1.4Z"/>
            <path class="cls-2" d="M98.8,53.1v-6.1h1.4l2.9,4.1v-4.1h1.3v6.1h-1.4l-2.8-4v4h-1.3Z"/>
            <path class="cls-2" d="M105.8,53.1v-6.1h1.4v2.7l2.8-2.7h1.9l-2.6,2.4,2.8,3.7h-1.8l-1.9-2.9-1.1,1v1.8h-1.4Z"/>
          </g>
        </g>
        <g class="cls-1">
          <g class="cls-1">
            <path class="cls-2" d="M93.6,55.5v-.6l-.6-.8h.4l.4.6.4-.6h.4l-.6.8v.6h-.3Z"/>
            <path class="cls-2" d="M94.6,54.8c0-.1,0-.3,0-.4,0,0,0-.1.1-.2s.1,0,.2-.1c.1,0,.2,0,.3,0,.2,0,.4,0,.6.2.1.1.2.3.2.5s0,.4-.2.5c-.1.1-.3.2-.6.2s-.4,0-.6-.2c-.1-.1-.2-.3-.2-.5ZM95,54.8c0,.2,0,.3.1.4,0,0,.2.1.3.1s.2,0,.3-.1c0,0,.1-.2.1-.4s0-.3-.1-.4c0,0-.2-.1-.3-.1s-.2,0-.3.1c0,0-.1.2-.1.4Z"/>
            <path class="cls-2" d="M96.4,54.1h.3v.8c0,.1,0,.2,0,.2,0,0,0,.1,0,.1,0,0,.1,0,.2,0s.2,0,.2,0c0,0,0,0,0-.1,0,0,0-.1,0-.2v-.8h.3v.7c0,.2,0,.3,0,.4,0,0,0,.1,0,.2,0,0-.1,0-.2.1,0,0-.2,0-.3,0s-.3,0-.3,0c0,0-.1,0-.2-.1,0,0,0-.1,0-.2,0,0,0-.2,0-.4v-.8Z"/>
            <path class="cls-2" d="M98.1,55.5v-1.4h.7c.2,0,.3,0,.4,0,0,0,.1,0,.2.1,0,0,0,.1,0,.2s0,.2-.1.3c0,0-.2.1-.3.1,0,0,.1,0,.2.1s.1.1.2.2l.2.3h-.4l-.2-.3c0-.1-.1-.2-.2-.2,0,0,0,0,0,0,0,0,0,0-.2,0h0v.6h-.3ZM98.4,54.7h.2c.2,0,.3,0,.3,0,0,0,0,0,0,0,0,0,0,0,0-.1s0,0,0-.1c0,0,0,0-.1,0,0,0-.1,0-.2,0h-.3v.4Z"/>
            <path class="cls-2" d="M100.3,54.1h.6c.1,0,.2,0,.3,0,0,0,.2,0,.2.1,0,0,.1.1.2.2s0,.2,0,.3,0,.2,0,.3c0,.1,0,.2-.2.2,0,0-.1,0-.2.1,0,0-.2,0-.3,0h-.6v-1.4ZM100.6,54.4v.9h.2c0,0,.2,0,.2,0,0,0,0,0,.1,0s0,0,0-.1c0,0,0-.2,0-.3s0-.2,0-.3c0,0,0-.1,0-.1,0,0,0,0-.2,0,0,0-.1,0-.3,0h-.1Z"/>
            <path class="cls-2" d="M101.9,55.5v-1.4h.7c.2,0,.3,0,.4,0s.1,0,.2.1c0,0,0,.1,0,.2s0,.2-.1.3c0,0-.2.1-.3.1,0,0,.1,0,.2.1s.1.1.2.2l.2.3h-.4l-.2-.3c0-.1-.1-.2-.2-.2,0,0,0,0,0,0,0,0,0,0-.2,0h0v.6h-.3ZM102.3,54.7h.2c.2,0,.3,0,.3,0s0,0,0,0c0,0,0,0,0-.1s0,0,0-.1c0,0,0,0-.1,0,0,0-.1,0-.2,0h-.3v.4Z"/>
            <path class="cls-2" d="M103.6,55.5v-1.4h.3v1.4h-.3Z"/>
            <path class="cls-2" d="M104.6,55.5l-.6-1.4h.4l.4,1,.4-1h.3l-.6,1.4h-.3Z"/>
            <path class="cls-2" d="M105.7,55.5v-1.4h1.2v.2h-.9v.3h.8v.2h-.8v.4h.9v.2h-1.2Z"/>
          </g>
        </g>
      </g>
    </g>
  </g>
</svg>