<?xml version="1.0" encoding="UTF-8"?>
<svg id="Layer_1" data-name="Layer 1" xmlns="http://www.w3.org/2000/svg" version="1.1" xmlns:xlink="http://www.w3.org/1999/xlink" viewBox="0 0 200 100">
  <defs>
    <style>
      .cls-1 {
        isolation: isolate;
      }

      .cls-2 {
        fill: #ff6207;
        stroke-width: 0px;
      }

      .cls-3 {
        fill: none;
        stroke: url(#linear-gradient);
      }
    </style>
    <linearGradient id="linear-gradient" x1="-1693.6" y1="-44.7" x2="-1692.6" y2="-44.7" gradientTransform="translate(-1688 67772) rotate(90) scale(40)" gradientUnits="userSpaceOnUse">
      <stop offset="0" stop-color="#ff6207"/>
      <stop offset="1" stop-color="#fff"/>
    </linearGradient>
  </defs>
  <g id="eKkDHhzw8gv1" shape-rendering="geometricPrecision" text-rendering="geometricPrecision">
    <g id="eKkDHhzw8gv2_to" data-name="eKkDHhzw8gv2 to">
      <g>
        <g id="eKkDHhzw8gv3_tr" data-name="eKkDHhzw8gv3 tr">
          <circle class="cls-3" cx="100" cy="50" r="20">
            <animateTransform accumulate="none" additive="replace" attributeName="transform" attributeType="XML" calcMode="linear" dur="2s" fill="remove" from="0 100 50" repeatCount="indefinite" restart="always" to="360 100 50" type="rotate"/>
          </circle>
        </g>
        <g class="cls-1">
          <g class="cls-1">
            <path class="cls-2" d="M88.1,53v-6h1.4v5h3.5v1h-4.9Z"/>
            <path class="cls-2" d="M94.9,53v-2.6l-2.6-3.5h1.6l1.6,2.4,1.6-2.4h1.6l-2.6,3.5v2.6h-1.4.2Z"/>
            <path class="cls-2" d="M99.6,53v-6.1h1.4l2.9,4.1v-4.1h1.3v6.1h-1.4l-2.8-4v4h-1.4Z"/>
            <path class="cls-2" d="M106.6,53v-6.1h1.4v2.7l2.8-2.7h1.9l-2.6,2.4,2.8,3.7h-1.8l-1.9-2.9-1.1,1v1.8h-1.5Z"/>
          </g>
        </g>
      </g>
    </g>
  </g>
</svg>